mtllib materials.mtl
v 0.2059533 -0.09481418 0.3846542
v -0.1640468 -0.09481418 0.3846542
v -0.1640468 -0.04481423 0.3846542
v 0.02095324 -0.04481423 0.3846542
v 0.2059533 -0.04481423 0.3846542
v 0.2059535 -0.09481418 -0.2753462
v 0.2059534 -0.04481411 -0.2753459
v 0.02095336 -0.04481423 -0.2753462
v -0.1640467 -0.04481423 -0.275346
v -0.1640468 -0.09481418 -0.2753462
v 0.03020328 -0.04481423 0.3764043
v 0.1967034 -0.04481423 0.3764042
v 0.2059534 -0.04481411 0.2196541
v 0.2059534 -0.04481411 0.05465412
v 0.2059535 -0.04481411 -0.1103458
v -0.1640468 -0.04481423 -0.1103461
v -0.1640468 -0.04481423 0.05465412
v -0.1640469 -0.04481423 0.2196541
v -0.1547968 -0.04481423 -0.1020963
v -0.1547968 -0.04481423 0.04640412
v -0.1547968 -0.04481423 0.06290412
v -0.1547969 -0.04481423 0.2114041
v -0.1547967 -0.04481423 -0.2670962
v -0.1547968 -0.04481423 -0.1185962
v -0.1547968 -0.04481423 0.3764042
v 0.01170325 -0.04481423 0.3764043
v 0.0209533 -0.04481423 0.05465412
v 0.1967035 -0.04481411 0.062904
v 0.0302034 -0.04481423 0.06290412
v 0.02095336 -0.04481411 -0.1103461
v 0.1967037 -0.04481411 -0.1020961
v 0.03020346 -0.04481411 -0.1020963
v 0.1967036 -0.04481411 -0.2670962
v 0.0302034 -0.04481423 -0.2670964
v -0.1547968 -0.04481423 0.2279041
v 0.02095324 -0.04481423 0.2196541
v 0.01170331 -0.04481423 0.2279041
v -0.1389793 -0.01481426 0.3622968
v -0.004114211 -0.01481426 0.3622968
v 0.03020334 -0.04481423 0.2279041
v 0.1967036 -0.04481411 0.2279041
v 0.04602093 -0.01481426 0.3622968
v 0.1808861 -0.01481426 0.3622967
v 0.01170337 -0.04481423 0.06290412
v 0.01170331 -0.04481423 0.2114041
v -0.1389793 -0.01481426 0.07701159
v -0.1389794 -0.01481426 0.1972965
v 0.1967035 -0.04481411 0.2114041
v 0.03020334 -0.04481423 0.2114041
v 0.1808861 -0.01481414 0.07701147
v 0.04602098 -0.01481426 0.07701159
v 0.1967035 -0.04481411 0.04640412
v 0.03020334 -0.04481423 0.04640412
v 0.1808863 -0.01481414 -0.08798862
v 0.04602098 -0.01481414 -0.08798885
v 0.01170343 -0.04481411 -0.1020963
v 0.01170331 -0.04481423 0.04640412
v -0.1389793 -0.01481426 -0.08798897
v -0.1389793 -0.01481426 0.03229654
v 0.01170337 -0.04481423 -0.2670964
v 0.01170343 -0.04481411 -0.1185961
v -0.1389791 -0.01481426 -0.2529888
v -0.1389794 -0.01481426 -0.1327038
v 0.1967036 -0.04481411 -0.1185958
v 0.0302034 -0.04481411 -0.1185961
v 0.1808861 -0.01481414 -0.2529888
v 0.04602093 -0.01481426 -0.2529889
v 0.04602098 -0.01481426 0.2420115
v 0.1808862 -0.01481414 0.2420115
v -0.1389793 -0.01481426 0.2420116
v -0.004114091 -0.01481426 0.2420115
v -0.004114151 -0.01481426 0.07701159
v -0.004114151 -0.01481426 0.1972966
v 0.1808861 -0.01481414 0.1972965
v 0.04602093 -0.01481426 0.1972966
v 0.1808861 -0.01481414 0.03229654
v 0.04602087 -0.01481426 0.03229666
v -0.004114032 -0.01481414 -0.08798885
v -0.004114151 -0.01481426 0.03229654
v -0.004114032 -0.01481426 -0.2529891
v -0.004114032 -0.01481414 -0.1327038
v 0.1808862 -0.01481414 -0.1327035
v 0.04602093 -0.01481414 -0.1327037
v 0.2232978 0.003291726 0.0138725
v -0.1035417 0.01592076 0.1868365
v -0.09419066 0.0157994 0.2045155
v 0.06922907 0.009484887 0.1180333
v 0.16029 0.006206393 0.09247112
v 0.2326488 0.003170371 0.03155124
v 0.05030364 0.005534053 -0.3131874
v 0.05228394 0.06549799 -0.3138236
v -0.1111357 0.07181251 -0.2273415
v -0.2745554 0.07812703 -0.1408595
v -0.2765357 0.01816308 -0.1402233
v 0.225278 0.06325567 0.01323617
v 0.06185836 0.06957006 0.09971821
v 0.06570441 0.06931043 0.08721769
v 0.2127821 0.06362748 0.009383678
v 0.138781 0.06437683 -0.1502937
v -0.1880584 0.07700586 0.02267039
v -0.1015614 0.07588458 0.1862003
v -0.2620597 0.07775533 -0.1370072
v -0.1842124 0.07674623 0.01016974
v -0.09771526 0.07562494 0.1736997
v 0.04936242 0.06994188 0.09586585
v 0.04843783 0.06575763 -0.3013231
v -0.09863997 0.07144082 -0.2234893
v -0.1149819 0.07207227 -0.2148411
v -0.02463865 0.07069135 -0.06381166
v -0.03713459 0.07106316 -0.06766415
v -0.2397019 0.1071014 -0.1307378
v -0.1766455 0.1062841 -0.01152444
v -0.1755626 0.07663417 0.02652287
v -0.02848488 0.0709511 -0.05131114
v -0.09014839 0.105163 0.1520054
v 0.02898461 0.1005597 0.08896017
v -0.0121429 0.07031953 -0.05995941
v 0.1349349 0.06463647 -0.1377933
v 0.07327145 0.09884846 0.06552339
v 0.1924044 0.0942452 0.002477884
v 0.1262851 0.06474864 -0.1541463
v -0.0207926 0.07043171 -0.0763123
v 0.04285103 0.09618366 -0.2802652
v -0.07628202 0.1007869 -0.2172199
v 0.1059074 0.09536636 -0.1610521
v -0.01322562 0.09996963 -0.09800649
v -0.1205688 0.1024982 -0.1937833
v -0.05751246 0.1016809 -0.07456994
v -0.1532047 0.1059803 0.03279221
v -0.03407162 0.101377 -0.03025329
v 0.01021504 0.09966576 -0.05368996
v 0.1293481 0.09506249 -0.1167355
v -0.01050055 0.07260597 0.1606381
v 0.2346291 0.06313431 0.03091502
v 0.1529192 0.06629145 0.07415605
v -0.003459871 0.002526999 0.1790594
v -0.08838242 0.06548858 0.1904711
vn 1 0 0
vn -1 0 0
vn 0 -1 0
vn -3.612423E-06 1 2.705523E-08
vn 0 0 -1
vn 0 0 1
vn -9.506309E-08 1 -1.939026E-07
vn -1.901266E-07 1 6.533168E-07
vn -1.425941E-07 1 -3.660508E-07
vn 2.297132E-13 1 -1.624299E-07
vn 7.561386E-12 1 5.240593E-07
vn -3.034171E-12 1 -2.351708E-07
vn 7.274391E-12 1 4.521039E-07
vn -1.901265E-07 1 5.948623E-07
vn -1.272982E-12 1 -1.362487E-07
vn -1.901263E-07 1 -4.45206E-07
vn 0.9049367 0.4255462 1.058941E-07
vn -1.901263E-07 1 7.207537E-07
vn 7.274183E-12 1 5.150624E-07
vn 3.802501E-07 1 2.578872E-06
vn 0.9049367 0.4255463 -5.935167E-07
vn -9.031017E-07 1 -1.272563E-07
vn -1.425947E-07 1 -9.635636E-07
vn 6.412767E-13 1 -1.939031E-07
vn -4.053803E-07 0.4663942 0.8845769
vn -1.901264E-07 1 7.732838E-07
vn -5.350353E-12 1 4.753929E-07
vn -1.901265E-07 1 2.846213E-07
vn -0.904937 0.4255455 1.153099E-06
vn -1.901266E-07 1 -1.812165E-07
vn -5.666204E-12 1 5.466901E-07
vn 5.703786E-07 1 3.797366E-08
vn -0.9049376 0.4255444 -1.047674E-06
vn -9.031236E-07 1 4.296346E-07
vn 6.179105E-07 1 -1.722781E-06
vn -1.914259E-14 1 -2.028956E-07
vn 8.501977E-08 0.4663945 0.8845769
vn -9.031203E-07 1 -2.390333E-07
vn -9.030999E-07 1 -1.196103E-06
vn -9.030911E-07 1 5.017217E-07
vn -1.373922E-06 0.4663939 0.8845772
vn -1.901261E-07 1 -1.369028E-07
vn 1.789821E-12 1 -1.046202E-07
vn -9.506312E-07 1 6.623043E-07
vn -0.9049377 0.425544 -6.548133E-07
vn -3.891768E-07 0.4663973 0.8845754
vn -0.9049369 0.4255458 3.697908E-07
vn 9.949778E-07 0.4663901 -0.8845791
vn 0 1 0
vn 1.177128E-07 0.4663954 0.8845764
vn -0.9049366 0.4255464 2.296946E-07
vn 4.086825E-07 0.466392 -0.8845781
vn 0 1 0
vn -0.9049368 0.4255461 7.149026E-08
vn 4.538543E-08 0.4663934 -0.8845773
vn 0.904936 0.4255476 1.335913E-07
vn 0 1 0
vn 1.408622E-07 0.4663913 -0.8845786
vn 0.9049361 0.4255475 -2.105133E-07
vn -3.856018E-07 0.4663958 0.8845761
vn 0 1 0
vn 1.023584E-06 0.4663913 -0.8845785
vn 0.904936 0.4255477 -2.573917E-07
vn -3.559725E-07 0.4663945 0.8845769
vn 0 1 0
vn -0.9049381 0.4255433 2.720434E-07
vn 1.038445E-06 0.4663929 -0.8845776
vn 0.9049352 0.4255494 -1.929457E-07
vn 0 1 0
vn -0.9049382 0.4255431 1.521449E-06
vn -7.64797E-07 0.4663922 -0.884578
vn 0.9049352 0.4255492 2.553118E-07
vn 0 1 0
vn -6.233457E-07 0.4663915 -0.8845785
vn 0.9049352 0.4255494 5.626637E-07
vn -4.08589E-07 0.4663946 0.8845767
vn 0 1 0
vn -5.774225E-06 -1 1.610932E-07
vn -1 0 0
vn 0 -1 0
vn 3.221846E-06 1 3.177645E-07
vn 0 0 -1
vn 0 0 1
vn -3.391448E-07 1 3.722093E-06
vn -8.878011E-13 1 -1.703289E-07
vn 2.561012E-14 1 -1.774084E-07
vn -3.22196E-06 1 -2.845581E-08
vn -1.695722E-07 1 -1.752814E-06
vn -1.092674E-12 1 -2.060559E-07
vn -1.647322E-07 0.4663911 0.8845786
vn 5.087166E-07 1 1.904079E-06
vn 1.067072E-12 1 -1.553953E-07
vn 5.087165E-07 1 1.197054E-07
vn 0.8845769 0.4663943 9.179504E-08
vn 5.087164E-07 1 1.548315E-06
vn -3.158553E-13 1 -2.068365E-07
vn 1.22927E-12 1 -3.758587E-06
vn 0.8845772 0.4663938 -7.362879E-07
vn -1.695723E-07 1 1.441553E-06
vn -2.475575E-13 1 -2.013555E-07
vn -1.695722E-07 1 1.581333E-06
vn -0.8845784 0.4663915 -7.114239E-07
vn -4.840546E-07 0.4663938 -0.8845772
vn 0.8845768 0.4663945 -8.740946E-07
vn -1.347062E-07 0.4663939 0.8845772
vn 0 1 0
vn -0.8845778 0.4663927 -2.842738E-07
vn -2.037263E-07 0.4663956 -0.8845763
vn 0.8845754 0.4663972 -2.07782E-07
vn 0 1 0
vn 4.104842E-07 0.4663917 0.8845783
vn -0.8845778 0.4663928 3.797941E-07
vn 5.42187E-07 0.466394 -0.884577
vn 0 1 0
vn -3.272727E-07 0.4663931 0.8845776
vn -0.8845784 0.4663915 -2.913181E-08
vn 2.740785E-07 0.4663939 -0.8845772
vn 0 1 0
vn 5.32722E-07 8.69235E-07 1
vn 0 0 0
vn 4.470348E-06 1 3.546068E-07
vn -1.857687E-06 4.96706E-07 -1
vn 1 0 0
vn 0.9466119 0.2704607 -0.1754337
vn 0.9644696 0.2216487 0.1437715
vn 0.9293349 0.309776 0.2009365
vn 0.9293345 0.3097767 -0.2009372
vn 0.9293347 0.3097764 0.2009368
vn 0.929335 0.3097763 -0.2009356
vn -0.4472138 -0.8944271 1.835293E-07
vn 0.9466118 0.270461 0.1754335
vn 0.8017862 0.2672612 0.5345189
vn 0.7759048 0.6081348 0.1677617
usemtl mat20
f 5//1 4//1 3//1 2//1 1//1
f 10//2 9//2 8//2 7//2 6//2
f 2//3 10//3 6//3 1//3
f 12//4 11//4 4//4 5//4
f 6//5 7//5 15//5 14//5 13//5 5//5 1//5
f 3//6 18//6 17//6 16//6 9//6 10//6 2//6
f 20//7 19//7 16//7 17//7
f 22//8 21//8 17//8 18//8
f 24//9 23//9 9//9 16//9
f 26//10 25//10 3//10 4//10
f 29//11 28//11 14//11 27//11
f 32//12 31//12 15//12 30//12
f 34//13 33//13 7//13 8//13
f 25//14 35//14 18//14 3//14
f 35//15 37//15 36//15 18//15
f 37//16 26//16 4//16 36//16
f 39//17 38//17 25//17 26//17
f 11//18 40//18 36//18 4//18
f 40//19 41//19 13//19 36//19
f 41//20 12//20 5//20 13//20
f 43//21 42//21 11//21 12//21
f 21//22 44//22 27//22 17//22
f 44//23 45//23 36//23 27//23
f 45//24 22//24 18//24 36//24
f 47//25 46//25 21//25 22//25
f 28//26 48//26 13//26 14//26
f 48//27 49//27 36//27 13//27
f 49//28 29//28 27//28 36//28
f 51//29 50//29 28//29 29//29
f 31//30 52//30 14//30 15//30
f 52//31 53//31 27//31 14//31
f 53//32 32//32 30//32 27//32
f 55//33 54//33 31//33 32//33
f 19//34 56//34 30//34 16//34
f 56//35 57//35 27//35 30//35
f 57//36 20//36 17//36 27//36
f 59//37 58//37 19//37 20//37
f 23//38 60//38 8//38 9//38
f 60//39 61//39 30//39 8//39
f 61//40 24//40 16//40 30//40
f 63//41 62//41 23//41 24//41
f 33//42 64//42 15//42 7//42
f 64//43 65//43 30//43 15//43
f 65//44 34//44 8//44 30//44
f 67//45 66//45 33//45 34//45
f 42//46 68//46 40//46 11//46
f 68//47 69//47 41//47 40//47
f 69//48 43//48 12//48 41//48
f 69//49 68//49 42//49 43//49
f 38//50 70//50 35//50 25//50
f 70//51 71//51 37//51 35//51
f 71//52 39//52 26//52 37//52
f 71//53 70//53 38//53 39//53
f 46//54 72//54 44//54 21//54
f 72//55 73//55 45//55 44//55
f 73//56 47//56 22//56 45//56
f 73//57 72//57 46//57 47//57
f 50//58 74//58 48//58 28//58
f 74//59 75//59 49//59 48//59
f 75//60 51//60 29//60 49//60
f 75//61 74//61 50//61 51//61
f 54//62 76//62 52//62 31//62
f 76//63 77//63 53//63 52//63
f 77//64 55//64 32//64 53//64
f 77//65 76//65 54//65 55//65
f 58//66 78//66 56//66 19//66
f 78//67 79//67 57//67 56//67
f 79//68 59//68 20//68 57//68
f 79//69 78//69 58//69 59//69
f 62//70 80//70 60//70 23//70
f 80//71 81//71 61//71 60//71
f 81//72 63//72 24//72 61//72
f 81//73 80//73 62//73 63//73
f 66//74 82//74 64//74 33//74
f 82//75 83//75 65//75 64//75
f 83//76 67//76 34//76 65//76
f 83//77 82//77 66//77 67//77
f 89//78 88//78 87//78 86//78 85//78 84//78
f 94//79 93//79 92//79 91//79 90//79
f 85//80 94//80 90//80 84//80
f 98//81 97//81 96//81 95//81
f 90//82 91//82 99//82 95//82 84//82
f 101//83 100//83 93//83 94//83 85//83
f 103//84 102//84 93//84 100//84
f 105//85 104//85 101//85 96//85
f 107//86 106//86 91//86 92//86
f 102//87 108//87 92//87 93//87
f 108//88 110//88 109//88 92//88
f 110//89 103//89 100//89 109//89
f 112//90 111//90 102//90 103//90
f 104//91 113//91 100//91 101//91
f 113//92 114//92 109//92 100//92
f 114//93 105//93 96//93 109//93
f 116//94 115//94 104//94 105//94
f 97//95 117//95 109//95 96//95
f 117//96 118//96 99//96 109//96
f 118//97 98//97 95//97 99//97
f 120//98 119//98 97//98 98//98
f 106//99 121//99 99//99 91//99
f 121//100 122//100 109//100 99//100
f 122//101 107//101 92//101 109//101
f 124//102 123//102 106//102 107//102
f 123//103 125//103 121//103 106//103
f 125//104 126//104 122//104 121//104
f 126//105 124//105 107//105 122//105
f 126//106 125//106 123//106 124//106
f 111//107 127//107 108//107 102//107
f 127//108 128//108 110//108 108//108
f 128//109 112//109 103//109 110//109
f 128//110 127//110 111//110 112//110
f 115//111 129//111 113//111 104//111
f 129//112 130//112 114//112 113//112
f 130//113 116//113 105//113 114//113
f 130//114 129//114 115//114 116//114
f 119//115 131//115 117//115 97//115
f 131//116 132//116 118//116 117//116
f 132//117 120//117 98//117 118//117
f 132//118 131//118 119//118 120//118
f 86//119 101//119 85//119
f 133//120 96//120 101//120
f 135//121 134//121 95//121 96//121
f 134//122 89//122 84//122 95//122
f 134//123 135//123 89//123
f 133//124 136//124 87//124
f 133//125 137//125 86//125
f 135//126 96//126 87//126
f 135//127 88//127 89//127
f 87//128 88//128 135//128
f 87//129 96//129 133//129
f 87//130 136//130 86//130
f 86//131 136//131 133//131
f 86//132 137//132 101//132
f 101//133 137//133 133//133
