mtllib materials.mtl
v 0.8131618 -0.8925011 -0.2628914
v 0.813163 -0.002499998 -0.2628927
v -0.8359729 -0.002500236 -0.2628952
v -0.8359746 -0.8925015 -0.2628945
v 0.8131618 -0.8925011 -0.06092969
v -0.8359745 -0.8925014 -0.06093255
v -0.8359729 -0.002500176 -0.06093335
v 0.813163 -0.002500057 -0.06093067
v 0.9898962 -0.002499878 -0.4684193
v 0.9898962 -0.002500057 0.1445935
v 0.9898963 0.04750001 0.1445935
v 0.9898962 0.04750007 -0.4684193
v -1.012706 -0.002500176 -0.4684193
v -1.012706 0.0474999 -0.4684192
v -1.266726 0.04750305 0.007010311
v -1.266726 -0.002497017 0.007010192
v -1.012706 -0.002500236 0.1445933
v -1.012706 0.04749972 0.1445934
vn 1.720256E-06 -1.172003E-06 -1
vn -1.680591E-06 1.012946E-06 1
vn 1 -1.333236E-06 -1.432974E-13
vn -1 1.864393E-06 4.242462E-07
vn 2.168571E-07 -1 3.613481E-07
vn -1.152057E-07 1 3.45163E-08
vn 1 -6.243536E-07 -1.36908E-07
vn -0.8820006 2.592784E-06 -0.4712483
vn 1.166589E-07 -1 -1.735842E-07
vn -1.203794E-07 1 1.631416E-07
vn -4.478546E-08 7.690809E-07 -1
vn -5.598774E-08 -9.180922E-07 1
vn -0.4762539 -1.339789E-06 0.8793079
vn -1.263053E-05 -1 -5.573239E-08
vn 1.300101E-05 1 2.535929E-07
vt 0.09063603 0.09893492
vt 0.01103199 0.1387371
vt -0.06271968 -0.00876604
vt 0.01688435 -0.0485683
vt -0.09063605 0.09893495
vt -0.01688438 -0.04856827
vt 0.06271966 -0.008766016
vt -0.01103202 0.1387372
vt -0.002912773 -0.04317012
vt 0.01352154 -0.05490888
vt 0.06525163 0.0175136
vt 0.0488173 0.02925239
vt 0.002913153 -0.04317016
vt -0.04881689 0.02925238
vt -0.06525124 0.01751363
vt -0.01352119 -0.05490891
vt 0.06479347 0.1138649
vt 0.00932674 -0.04144112
vt 0.02834634 -0.04823383
vt 0.08381305 0.1070722
vt -0.06479342 0.113865
vt -0.08381303 0.1070723
vt -0.02834633 -0.04823364
vt -0.009326734 -0.04144093
vt 0.03209288 0.04119828
vt 0.0819758 0.005567656
vt 0.08488199 0.009636332
vt 0.03499907 0.04526695
vt -0.0586006 0.005085723
vt -0.06281974 0.007768805
vt -0.09174557 -0.03771622
vt -0.08752643 -0.04039931
vt 0.05138229 0.1374213
vt -0.01597253 -0.05117213
vt 0.04175745 -0.07178994
vt 0.1091123 0.1168035
vt -0.05138229 0.1374213
vt -0.1091123 0.1168035
vt -0.04175745 -0.07178995
vt 0.01597252 -0.05117213
vt 0.01893556 0.1545446
vt 0.01446343 0.1567807
vt -0.07509562 -0.02233755
vt -0.07062347 -0.02457362
vt -0.01893553 0.1545447
vt 0.0706235 -0.02457357
vt 0.07509564 -0.02233751
vt -0.01446339 0.1567807
vt 0.05645276 0.01915779
vt 0.05236623 0.01627678
vt 0.06901218 -0.007333907
vt 0.07309871 -0.004452868
vt 0.04175709 -0.07179065
vt -0.01597285 -0.05117272
vt 0.02025666 -0.09108531
vt 0.01597288 -0.0511728
vt -0.04175704 -0.07179074
vt -0.02025662 -0.09108537
o group383138261
g mesh383138261
usemtl mat15
f 4/4/1 3/3/1 2/2/1 1/1/1
f 8/8/2 7/7/2 6/6/2 5/5/2
f 2/12/3 8/11/3 5/10/3 1/9/3
f 6/16/4 7/15/4 3/14/4 4/13/4
f 5/20/5 6/19/5 4/18/5 1/17/5
f 3/24/6 7/23/6 8/22/6 2/21/6
o group497994667
g mesh497994667
usemtl mat20
f 12/28/7 11/27/7 10/26/7 9/25/7
f 16/32/8 15/31/8 14/30/8 13/29/8
f 10/36/9 17/35/9 13/34/9 9/33/9
f 14/40/10 18/39/10 11/38/10 12/37/10
f 13/44/11 14/43/11 12/42/11 9/41/11
f 11/48/12 18/47/12 17/46/12 10/45/12
f 15/52/13 16/51/13 17/50/13 18/49/13
f 16/55/14 13/54/14 17/53/14
f 15/58/15 18/57/15 14/56/15
